<svg xmlns="http://www.w3.org/2000/svg" viewBox="0 0 63.45 55.07"><defs><style>.cls-1{fill:#e6e6e6;}.cls-2{fill:#4d4d4d;}.cls-3{fill:#19a337;}.cls-4{fill:#333;}.cls-5{fill:#d1edd7;}</style></defs><title>icon</title><g id="Layer_2" data-name="Layer 2"><g id="Layer_1-2" data-name="Layer 1"><circle class="cls-1" cx="31.76" cy="31.48" r="22.68"/><path class="cls-2" d="M31.76,55.07A23.59,23.59,0,1,1,55.35,31.48,23.62,23.62,0,0,1,31.76,55.07Zm0-45.35A21.76,21.76,0,1,0,53.52,31.48,21.78,21.78,0,0,0,31.76,9.72Z"/><circle class="cls-3" cx="31.76" cy="31.48" r="17.1"/><circle class="cls-4" cx="31.76" cy="31.48" r="10.15"/><circle class="cls-5" cx="29.39" cy="28.05" r="3.66"/><path class="cls-4" d="M63.44,31.54l-.23,4.4A6.82,6.82,0,0,1,56,42.39h-.2a.92.92,0,0,1-.87-1l.77-14.64a.92.92,0,0,1,.93-.87,29.73,29.73,0,0,0-5-12.61,23.82,23.82,0,0,0-12.54-9A26.14,26.14,0,0,0,22.26,5a23.74,23.74,0,0,0-11.5,10.08A30.38,30.38,0,0,0,7,25.93a.91.91,0,0,1,.73.85l.77,14.64a.92.92,0,0,1-.87,1h-.2A6.82,6.82,0,0,1,.24,35.94L0,31.54A5.27,5.27,0,0,1,3.7,26.24a32.9,32.9,0,0,1,5.52-14.7A26.79,26.79,0,0,1,23.41,1.19,29.18,29.18,0,0,1,42,1.88,27.59,27.59,0,0,1,55.48,13.27a33.43,33.43,0,0,1,4.49,13A5.27,5.27,0,0,1,63.44,31.54Z"/></g></g></svg>