<?xml version="1.0" encoding="utf-8"?>
<!-- Generator: Adobe Illustrator 21.0.0, SVG Export Plug-In . SVG Version: 6.00 Build 0)  -->
<svg version="1.1" id="Layer_1" xmlns:sketch="http://www.bohemiancoding.com/sketch/ns"
	 xmlns="http://www.w3.org/2000/svg" xmlns:xlink="http://www.w3.org/1999/xlink" x="0px" y="0px" viewBox="0 0 50 50"
	 style="enable-background:new 0 0 50 50;" xml:space="preserve">
<style type="text/css">
	.st0{fill:#2D2D2D;}
	.st1{fill:#4C4C4C;}
	.st2{fill:#EFEFEF;}
</style>
<g id="FB">
	<path class="st0" d="M25,0C11.2,0,0,11.2,0,25s11.2,25,25,25s25-11.2,25-25S38.8,0,25,0z M25,47C12.8,47,3,37.2,3,25S12.8,3,25,3
		s22,9.8,22,22S37.2,47,25,47z"/>
	<circle class="st1" cx="25" cy="25" r="22"/>
	<path class="st2" d="M31.8,20.3L31.3,25h-4v13.6h-6V25h-3v-4.7h3v-2.8c0-3.8,1.7-6.1,6.5-6.1h4v4.7h-2.5c-1.9,0-2,0.7-2,1.9l0,2.3
		H31.8z"/>
</g>
</svg>
