<?xml version="1.0" encoding="utf-8"?>
<!-- Generator: Adobe Illustrator 21.0.0, SVG Export Plug-In . SVG Version: 6.00 Build 0)  -->
<svg version="1.1" id="Layer_1" xmlns:sketch="http://www.bohemiancoding.com/sketch/ns"
	 xmlns="http://www.w3.org/2000/svg" xmlns:xlink="http://www.w3.org/1999/xlink" x="0px" y="0px" viewBox="0 0 50 50"
	 style="enable-background:new 0 0 50 50;" xml:space="preserve">
<style type="text/css">
	.st0{fill:#4C4C4C;}
	.st1{fill:#2D2D2D;}
	.st2{fill:#EFEFEF;}
</style>
<g>
	<path id="Oval-1" class="st0" d="M18.9,15.5c-1.2,0-2.5,0.6-3.3,1.6c-0.8,1-1,2.3-1,3.5c0,3.2,1.8,8.4,5.9,8.4
		c1.2,0,2.4-0.6,3.2-1.3c1.1-1.1,1.2-2.6,1.2-3.4C24.8,20.8,22.8,15.5,18.9,15.5z M18.9,15.5c-1.2,0-2.5,0.6-3.3,1.6
		c-0.8,1-1,2.3-1,3.5c0,3.2,1.8,8.4,5.9,8.4c1.2,0,2.4-0.6,3.2-1.3c1.1-1.1,1.2-2.6,1.2-3.4C24.8,20.8,22.8,15.5,18.9,15.5z
		 M18.9,15.5c-1.2,0-2.5,0.6-3.3,1.6c-0.8,1-1,2.3-1,3.5c0,3.2,1.8,8.4,5.9,8.4c1.2,0,2.4-0.6,3.2-1.3c1.1-1.1,1.2-2.6,1.2-3.4
		C24.8,20.8,22.8,15.5,18.9,15.5z M18.9,15.5c-1.2,0-2.5,0.6-3.3,1.6c-0.8,1-1,2.3-1,3.5c0,3.2,1.8,8.4,5.9,8.4
		c1.2,0,2.4-0.6,3.2-1.3c1.1-1.1,1.2-2.6,1.2-3.4C24.8,20.8,22.8,15.5,18.9,15.5z M18.9,15.5c-1.2,0-2.5,0.6-3.3,1.6
		c-0.8,1-1,2.3-1,3.5c0,3.2,1.8,8.4,5.9,8.4c1.2,0,2.4-0.6,3.2-1.3c1.1-1.1,1.2-2.6,1.2-3.4C24.8,20.8,22.8,15.5,18.9,15.5z
		 M18.9,15.5c-1.2,0-2.5,0.6-3.3,1.6c-0.8,1-1,2.3-1,3.5c0,3.2,1.8,8.4,5.9,8.4c1.2,0,2.4-0.6,3.2-1.3c1.1-1.1,1.2-2.6,1.2-3.4
		C24.8,20.8,22.8,15.5,18.9,15.5z M18.9,15.5c-1.2,0-2.5,0.6-3.3,1.6c-0.8,1-1,2.3-1,3.5c0,3.2,1.8,8.4,5.9,8.4
		c1.2,0,2.4-0.6,3.2-1.3c1.1-1.1,1.2-2.6,1.2-3.4C24.8,20.8,22.8,15.5,18.9,15.5z M18.9,15.5c-1.2,0-2.5,0.6-3.3,1.6
		c-0.8,1-1,2.3-1,3.5c0,3.2,1.8,8.4,5.9,8.4c1.2,0,2.4-0.6,3.2-1.3c1.1-1.1,1.2-2.6,1.2-3.4C24.8,20.8,22.8,15.5,18.9,15.5z
		 M18.9,15.5c-1.2,0-2.5,0.6-3.3,1.6c-0.8,1-1,2.3-1,3.5c0,3.2,1.8,8.4,5.9,8.4c1.2,0,2.4-0.6,3.2-1.3c1.1-1.1,1.2-2.6,1.2-3.4
		C24.8,20.8,22.8,15.5,18.9,15.5z M18.9,15.5c-1.2,0-2.5,0.6-3.3,1.6c-0.8,1-1,2.3-1,3.5c0,3.2,1.8,8.4,5.9,8.4
		c1.2,0,2.4-0.6,3.2-1.3c1.1-1.1,1.2-2.6,1.2-3.4C24.8,20.8,22.8,15.5,18.9,15.5z"/>
	<path class="st1" d="M25,0C11.2,0,0,11.2,0,25s11.2,25,25,25s25-11.2,25-25S38.8,0,25,0z M25,47c-0.1,0-0.2,0-0.3,0h-0.1
		c-0.1,0-0.1,0-0.2,0c0,0,0,0,0,0c-4.5-0.1-8.6-1.6-12.1-4c0,0,0,0,0,0.1c-2.3-1.7-3.1-2.5-3.3-2.9c0,0,0,0,0,0
		C5.3,36.2,3,30.9,3,25C3,12.8,12.8,3,25,3s22,9.8,22,22S37.2,47,25,47z"/>
	<path class="st0" d="M27.4,42.7c0,1.9-1,3.5-3,4.3c-4.5-0.1-8.6-1.6-12.1-4c-0.1-0.3-0.1-0.7-0.1-1c0-3.3,3-4.5,4-4.8
		c2-0.6,4.5-0.7,4.9-0.7c0.5,0,0.7,0,1.1,0C25.8,39,27.4,40.3,27.4,42.7z"/>
	<path class="st2" d="M26.6,34.3L24.9,33c-0.5-0.4-1.2-1-1.2-2c0-1,0.7-1.7,1.3-2.3c2-1.5,3.9-3.2,3.9-6.6c0-3.6-2.2-5.4-3.3-6.3
		h2.9l3-1.7h-9.7c-2.5,0-5.7,0.4-8.4,2.6c-2,1.7-3,4.1-3,6.3c0,3.7,2.8,7.4,7.8,7.4c0.5,0,1-0.1,1.5-0.1c-0.2,0.5-0.5,1-0.5,1.8
		c0,1.5,0.8,2.4,1.4,3.2c-2.1,0.1-6,0.4-9,2.2C10.4,38,9.6,39,9,39.9h0c0,0-0.1,0.1,0,0.3c0,0,0,0,0,0c1,1,2.1,2,3.3,2.8
		c-0.1-0.3-0.1-0.7-0.1-1c0-3.3,3-4.5,4-4.8c2-0.6,4.5-0.7,4.9-0.7c0.5,0,0.7,0,1.1,0c3.6,2.5,5.1,3.8,5.1,6.2c0,1.9-1,3.5-3,4.3
		c0.1,0,0.1,0,0.2,0h0.1c1,0,2-0.1,2.9-0.3c1.9-1.6,2.9-3.8,2.9-5.9C30.5,37.6,28.7,36,26.6,34.3z M20.5,28.9c-4,0-5.9-5.2-5.9-8.4
		c0-1.2,0.2-2.5,1-3.5c0.8-0.9,2.1-1.6,3.3-1.6c3.9,0,5.9,5.2,5.9,8.6c0,0.8-0.1,2.3-1.2,3.4C22.9,28.3,21.6,28.9,20.5,28.9z"/>
	<path class="st0" d="M25,3C12.8,3,3,12.8,3,25c0,5.9,2.3,11.2,6.1,15.2C9,40,9,39.9,9,39.9h0c0.6-0.9,1.4-1.9,2.7-2.6
		c2.9-1.8,6.8-2,9-2.2c-0.7-0.8-1.4-1.7-1.4-3.2c0-0.8,0.2-1.3,0.5-1.8c-0.5,0-1,0.1-1.5,0.1c-5,0-7.8-3.7-7.8-7.4
		c0-2.1,1-4.5,3-6.3c2.7-2.2,5.9-2.6,8.4-2.6h9.7l-3,1.7h-2.9c1.1,0.9,3.3,2.8,3.3,6.3c0,3.5-2,5.1-3.9,6.6
		c-0.6,0.6-1.3,1.3-1.3,2.3c0,1,0.7,1.6,1.2,2l1.7,1.3c2.1,1.7,3.9,3.3,3.9,6.5c0,2.1-1,4.3-2.9,5.9c-0.9,0.2-1.9,0.2-2.9,0.3
		c0.1,0,0.2,0,0.3,0c12.2,0,22-9.8,22-22S37.2,3,25,3z M38.2,22.1v5.3H36v-5.3h-5.2v-2.2H36v-5.2h2.2v5.2h4c0.3,0.7,0.5,1.5,0.8,2.2
		H38.2z"/>
	<path class="st2" d="M43,22.1h-4.8v5.3H36v-5.3h-5.2v-2.2H36v-5.2h2.2v5.2h4C42.5,20.6,42.8,21.4,43,22.1z"/>
</g>
</svg>
