<?xml version="1.0" encoding="utf-8"?>
<!-- Generator: Adobe Illustrator 21.0.0, SVG Export Plug-In . SVG Version: 6.00 Build 0)  -->
<svg version="1.1" id="Layer_1" xmlns:sketch="http://www.bohemiancoding.com/sketch/ns"
	 xmlns="http://www.w3.org/2000/svg" xmlns:xlink="http://www.w3.org/1999/xlink" x="0px" y="0px" viewBox="0 0 50 50"
	 style="enable-background:new 0 0 50 50;" xml:space="preserve">
<style type="text/css">
	.st0{fill:#2D2D2D;}
	.st1{fill:#4C4C4C;}
	.st2{fill:#EFEFEF;}
</style>
<g>
	<path class="st0" d="M25,0C11.2,0,0,11.2,0,25s11.2,25,25,25s25-11.2,25-25S38.8,0,25,0z M25,47C12.8,47,3,37.2,3,25S12.8,3,25,3
		s22,9.8,22,22S37.2,47,25,47z"/>
	<path class="st1" d="M25,3C12.8,3,3,12.8,3,25s9.8,22,22,22s22-9.8,22-22S37.2,3,25,3z M36,34.2c0,0.1,0,0.2,0,0.3
		c-0.2,0.9-0.9,1.7-1.8,1.9c-0.1,0-0.2,0-0.3,0.1H16.2c0,0-0.1,0-0.1,0c-1-0.1-1.8-0.9-2-1.9c0-0.1,0-0.2-0.1-0.4V15.8
		c0,0,0-0.1,0-0.1c0.1-1,0.9-1.9,1.8-2.1c0.1,0,0.2,0,0.3-0.1h17.7c0,0,0.1,0,0.1,0c1,0.1,1.8,0.9,2,2c0,0.1,0,0.2,0,0.3V34.2z"/>
	<path class="st2" d="M36,15.5c-0.2-1-1-1.8-2-2c0,0-0.1,0-0.1,0H16.2c-0.1,0-0.2,0-0.3,0.1c-1,0.2-1.7,1-1.8,2.1c0,0,0,0.1,0,0.1
		v18.5c0,0.1,0,0.2,0.1,0.4c0.2,1,1,1.8,2,1.9c0,0,0.1,0,0.1,0h17.6c0.1,0,0.2,0,0.3-0.1c0.9-0.2,1.6-1,1.8-1.9c0-0.1,0-0.2,0-0.3
		V15.8C36,15.7,36,15.6,36,15.5z M25,20.3c2.5,0,4.5,2.1,4.5,4.8c-0.1,2.5-2.1,4.6-4.6,4.6c-2.4-0.1-4.4-2.1-4.4-4.7
		C20.6,22.4,22.6,20.3,25,20.3z M33.6,33.1c0,0.5-0.4,0.9-0.9,0.9H17.3c-0.5,0-0.9-0.4-0.9-0.9V22.8h2.1c-0.5,1.9-0.4,3.8,0.5,5.6
		c0.6,1.2,1.5,2.1,2.6,2.8c2.3,1.3,5.1,1.2,7.2-0.3c0.8-0.6,1.5-1.3,2-2.2c0.5-0.9,0.8-1.8,0.9-2.9c0.1-1,0-2-0.3-3h2.1V33.1z
		 M33.6,18.5c0,0.5-0.4,0.9-0.8,0.9c-0.4,0-0.7,0-1.1,0c-0.3,0-0.7,0-1,0c-0.4,0-0.7-0.2-0.9-0.6c0-0.1,0-0.2,0-0.3
		c0-0.7,0-1.4,0-2.2c0-0.5,0.4-0.9,0.9-0.9h2.1c0.5,0,0.9,0.4,0.9,0.9V18.5z"/>
	<path class="st1" d="M33.6,22.8v10.3c0,0.5-0.4,0.9-0.9,0.9H17.3c-0.5,0-0.9-0.4-0.9-0.9V22.8h2.1c-0.5,1.9-0.4,3.8,0.5,5.6
		c0.6,1.2,1.5,2.1,2.6,2.8c2.3,1.3,5.1,1.2,7.2-0.3c0.8-0.6,1.5-1.3,2-2.2c0.5-0.9,0.8-1.8,0.9-2.9c0.1-1,0-2-0.3-3H33.6z"/>
	<path class="st1" d="M33.6,16.3v2.2c0,0.5-0.4,0.9-0.8,0.9c-0.4,0-0.7,0-1.1,0c-0.3,0-0.7,0-1,0c-0.4,0-0.7-0.2-0.9-0.6
		c0-0.1,0-0.2,0-0.3c0-0.7,0-1.4,0-2.2c0-0.5,0.4-0.9,0.9-0.9h2.1C33.2,15.4,33.6,15.8,33.6,16.3z"/>
	<path class="st1" d="M29.5,25.1c-0.1,2.5-2.1,4.6-4.6,4.6c-2.4-0.1-4.4-2.1-4.4-4.7c0-2.5,2-4.6,4.5-4.6
		C27.5,20.3,29.5,22.5,29.5,25.1z"/>
</g>
</svg>
