<?xml version="1.0" encoding="utf-8"?>
<!-- Generator: Adobe Illustrator 21.0.0, SVG Export Plug-In . SVG Version: 6.00 Build 0)  -->
<svg version="1.1" id="Layer_1" xmlns:sketch="http://www.bohemiancoding.com/sketch/ns"
	 xmlns="http://www.w3.org/2000/svg" xmlns:xlink="http://www.w3.org/1999/xlink" x="0px" y="0px" viewBox="0 0 50 50"
	 style="enable-background:new 0 0 50 50;" xml:space="preserve">
<style type="text/css">
	.st0{fill:#2D2D2D;}
	.st1{fill:#4C4C4C;}
	.st2{fill:#EFEFEF;}
</style>
<g>
	<path class="st0" d="M25,0C11.2,0,0,11.2,0,25s11.2,25,25,25s25-11.2,25-25S38.8,0,25,0z M25,47C12.8,47,3,37.2,3,25S12.8,3,25,3
		s22,9.8,22,22S37.2,47,25,47z"/>
	<path class="st1" d="M25,3C12.8,3,3,12.8,3,25s9.8,22,22,22s22-9.8,22-22S37.2,3,25,3z M18.7,34.7H14V20.1h4.7V34.7z M16.6,18
		L16.6,18C15,18,14,16.9,14,15.5c0-1.4,1-2.5,2.7-2.5c1.6,0,2.6,1.1,2.6,2.5C19.3,16.9,18.3,18,16.6,18z M36,35h-4.7v-7.8
		c0-1.9-0.7-3.3-2.4-3.3c-1.3,0-2.1,0.9-2.4,1.8c-0.1,0.3-0.2,0.8-0.2,1.2V35h-4.7c0,0,0.1-13.2,0-14.5h4.7v2.1
		c0.6-1,1.8-2.4,4.3-2.4c3.1,0,5.4,2.1,5.4,6.5V35z"/>
	<path class="st2" d="M19.3,15.5c0,1.4-1,2.5-2.7,2.5h0C15,18,14,16.9,14,15.5c0-1.4,1-2.5,2.7-2.5C18.3,13,19.3,14.1,19.3,15.5z"/>
	<path class="st2" d="M36,26.7V35h-4.7v-7.8c0-1.9-0.7-3.3-2.4-3.3c-1.3,0-2.1,0.9-2.4,1.8c-0.1,0.3-0.2,0.8-0.2,1.2V35h-4.7
		c0,0,0.1-13.2,0-14.5h4.7v2.1c0.6-1,1.8-2.4,4.3-2.4C33.7,20.1,36,22.2,36,26.7z"/>
	<rect x="14" y="20.1" class="st2" width="4.7" height="14.5"/>
</g>
</svg>
