<?xml version="1.0" encoding="utf-8"?>
<!-- Generator: Adobe Illustrator 21.0.0, SVG Export Plug-In . SVG Version: 6.00 Build 0)  -->
<svg version="1.1" id="Layer_1" xmlns:sketch="http://www.bohemiancoding.com/sketch/ns"
	 xmlns="http://www.w3.org/2000/svg" xmlns:xlink="http://www.w3.org/1999/xlink" x="0px" y="0px" viewBox="0 0 48.5 37.6"
	 style="enable-background:new 0 0 48.5 37.6;" xml:space="preserve">
<style type="text/css">
	.st0{fill:#2D2D2D;}
	.st1{fill:#4C4C4C;}
	.st2{fill:#EFEFEF;}
	.st3{fill:#ADADAD;}
</style>
<g>
	<path class="st0" d="M80.5-3.6c-13.8,0-25,11.2-25,25s11.2,25,25,25s25-11.2,25-25S94.3-3.6,80.5-3.6z M80.5,43.4
		c-12.2,0-22-9.8-22-22s9.8-22,22-22s22,9.8,22,22S92.7,43.4,80.5,43.4z"/>
	<path class="st1" d="M102.5,21.4c0,12.2-9.8,22-22,22s-22-9.8-22-22s9.8-22,22-22S102.5,9.2,102.5,21.4z"/>
</g>
<path class="st2" d="M80.5,5.2C74.1,5.2,69,10.4,69,16.7c0,6.4,11.5,21.3,11.5,20.9S92,23.1,92,16.7C92,10.4,86.9,5.2,80.5,5.2z
	 M80.5,21.3c-3.2,0-5.8-2.6-5.8-5.8s2.6-5.8,5.8-5.8s5.8,2.6,5.8,5.8S83.7,21.3,80.5,21.3z"/>
<path class="st2" d="M17.3,1.6h20.2c5.3,0,9.7,4.3,9.7,9.7v6.9c0,5.3-4.3,9.7-9.7,9.7H17.3c-5.3,0-9.7-4.3-9.7-9.7v-6.9
	C7.7,6,12,1.6,17.3,1.6z"/>
<circle class="st2" cx="9" cy="30.2" r="2.7"/>
<circle class="st2" cx="4.3" cy="34.8" r="1.9"/>
<g>
	<circle class="st3" cx="20.3" cy="14.7" r="2.8"/>
	<circle class="st3" cx="27.4" cy="14.7" r="2.8"/>
	<circle class="st3" cx="34.5" cy="14.7" r="2.8"/>
</g>
</svg>
