<?xml version="1.0" encoding="utf-8"?>
<!-- Generator: Adobe Illustrator 21.0.0, SVG Export Plug-In . SVG Version: 6.00 Build 0)  -->
<svg version="1.1" id="Layer_1" xmlns="http://www.w3.org/2000/svg" xmlns:xlink="http://www.w3.org/1999/xlink" x="0px" y="0px"
	 viewBox="0 0 24 24" style="enable-background:new 0 0 24 24;" xml:space="preserve">
<style type="text/css">
	.st0{fill:#4C4C4C;}
	.st1{fill:#2D2D2D;}
	.st2{fill:#EFEFEF;}
</style>
<g>
	<path class="st0" d="M12,23.5C5.7,23.5,0.5,18.3,0.5,12C0.5,5.7,5.7,0.5,12,0.5c6.3,0,11.5,5.2,11.5,11.5
		C23.5,18.3,18.3,23.5,12,23.5z"/>
	<path class="st1" d="M12,1c6.1,0,11,4.9,11,11s-4.9,11-11,11S1,18.1,1,12S5.9,1,12,1 M12,0C5.4,0,0,5.4,0,12s5.4,12,12,12
		s12-5.4,12-12S18.6,0,12,0L12,0z"/>
</g>
<g>
	<path class="st2" d="M10.1,7.6c0.3-0.3,0.4-0.7,0.4-1.1s-0.2-0.8-0.4-1.1L8.5,3.9c-0.6-0.6-1.6-0.6-2.1,0L5.9,4.3l3.7,3.7L10.1,7.6
		z"/>
	<path class="st2" d="M15.9,14.3l3.7,3.7l0.4-0.4c0.3-0.3,0.4-0.7,0.4-1.1c0-0.4-0.2-0.8-0.4-1.1l-1.6-1.6c-0.6-0.6-1.6-0.6-2.1,0
		L15.9,14.3z"/>
	<path class="st2" d="M7.6,16.4c3.4,3.4,6,4.1,7.7,4.1c1.8,0,2.8-0.8,3.1-1.1l0.4-0.4l-3.7-3.7L14.3,16c-0.2,0.2-0.5,0.2-0.7,0
		L8,10.4c-0.1-0.1-0.1-0.2-0.1-0.4S7.9,9.8,8,9.7l0.6-0.6L4.9,5.3L4.6,5.7C4.4,5.9,0.8,9.6,7.6,16.4z"/>
</g>
</svg>
