<?xml version="1.0" encoding="utf-8"?>
<!-- Generator: Adobe Illustrator 21.0.0, SVG Export Plug-In . SVG Version: 6.00 Build 0)  -->
<svg version="1.1" id="Layer_1" xmlns:sketch="http://www.bohemiancoding.com/sketch/ns"
	 xmlns="http://www.w3.org/2000/svg" xmlns:xlink="http://www.w3.org/1999/xlink" x="0px" y="0px" viewBox="0 0 50 50"
	 style="enable-background:new 0 0 50 50;" xml:space="preserve">
<style type="text/css">
	.st0{fill:#2D2D2D;}
	.st1{fill:#4C4C4C;}
	.st2{fill:#EFEFEF;}
</style>
<g>
	<path class="st0" d="M25,0C11.2,0,0,11.2,0,25s11.2,25,25,25s25-11.2,25-25S38.8,0,25,0z M25,47C12.8,47,3,37.2,3,25S12.8,3,25,3
		s22,9.8,22,22S37.2,47,25,47z"/>
	<path class="st1" d="M25,3C12.8,3,3,12.8,3,25s9.8,22,22,22s22-9.8,22-22S37.2,3,25,3z M35.9,18.1c-0.1,0.2-0.6,0.8-1.1,1.3
		c-0.9,0.9-0.9,1-0.9,1.8c0,1.2-0.5,3.7-1.1,5c-1,2.5-3.1,5.2-5.3,6.5c-3,1.9-7,2.3-10.4,1.2c-1.1-0.4-3.1-1.3-3.1-1.5
		c0-0.1,0.6-0.1,1.3-0.1c1.5,0,3-0.5,4.3-1.2l0.9-0.5l-1-0.4c-1.4-0.5-2.7-1.7-3-2.8c-0.1-0.3-0.1-0.4,0.8-0.4l0.9,0l-0.8-0.4
		c-0.9-0.5-1.8-1.3-2.2-2.1c-0.3-0.6-0.7-2.1-0.6-2.3c0,0,0.4,0.1,0.8,0.2c1.1,0.4,1.2,0.3,0.6-0.4c-1.2-1.3-1.6-3.2-1-5l0.3-0.8
		l1,1.1c2.1,2.2,4.7,3.5,7.6,3.9l0.8,0.1l0-0.8c-0.1-2.1,1.1-4.1,3.1-4.8c0.7-0.3,2-0.3,2.8-0.1c0.3,0.1,0.9,0.4,1.4,0.7l0.8,0.6
		l0.9-0.3c0.5-0.1,1.1-0.4,1.4-0.6c0.3-0.2,0.5-0.2,0.5-0.2c0,0.3-0.6,1.3-1.1,1.8c-0.7,0.8-0.5,0.8,0.9,0.3
		C36.1,17.7,36.1,17.7,35.9,18.1z"/>
	<path class="st2" d="M35.9,18.1c-0.1,0.2-0.6,0.8-1.1,1.3c-0.9,0.9-0.9,1-0.9,1.8c0,1.2-0.5,3.7-1.1,5c-1,2.5-3.1,5.2-5.3,6.5
		c-3,1.9-7,2.3-10.4,1.2c-1.1-0.4-3.1-1.3-3.1-1.5c0-0.1,0.6-0.1,1.3-0.1c1.5,0,3-0.5,4.3-1.2l0.9-0.5l-1-0.4
		c-1.4-0.5-2.7-1.7-3-2.8c-0.1-0.3-0.1-0.4,0.8-0.4l0.9,0l-0.8-0.4c-0.9-0.5-1.8-1.3-2.2-2.1c-0.3-0.6-0.7-2.1-0.6-2.3
		c0,0,0.4,0.1,0.8,0.2c1.1,0.4,1.2,0.3,0.6-0.4c-1.2-1.3-1.6-3.2-1-5l0.3-0.8l1,1.1c2.1,2.2,4.7,3.5,7.6,3.9l0.8,0.1l0-0.8
		c-0.1-2.1,1.1-4.1,3.1-4.8c0.7-0.3,2-0.3,2.8-0.1c0.3,0.1,0.9,0.4,1.4,0.7l0.8,0.6l0.9-0.3c0.5-0.1,1.1-0.4,1.4-0.6
		c0.3-0.2,0.5-0.2,0.5-0.2c0,0.3-0.6,1.3-1.1,1.8c-0.7,0.8-0.5,0.8,0.9,0.3C36.1,17.7,36.1,17.7,35.9,18.1z"/>
</g>
</svg>
