<svg xmlns="http://www.w3.org/2000/svg" viewBox="0 0 129.87 55.07"><defs><style>.cls-1{fill:#00a39d;}.cls-2{fill:#4d4d4d;}.cls-3{fill:#e6e6e6;}.cls-4{fill:#19a337;}.cls-5{fill:#333;}.cls-6{fill:#d1edd7;}</style></defs><title>logo</title><g id="Layer_2" data-name="Layer 2"><g id="Layer_1-2" data-name="Layer 1"><polygon class="cls-1" points="71.54 17.08 85.23 17.08 85.23 21.93 80.78 21.93 80.78 38 75.94 38 75.94 21.93 71.54 21.93 71.54 17.08"/><path class="cls-1" d="M95.09,17.08H88V38h7.06a10.46,10.46,0,1,0,0-20.92Zm0,16.08H92.88V21.93h2.35a5.29,5.29,0,0,1,5.52,5.6A5.42,5.42,0,0,1,95.09,33.16Z"/><path class="cls-1" d="M129.87,17.08V38h-4.82V27.19c-.34.93-.45,1.15-4,10.81h-3.64L113.6,27.39V38h-5V17.08h5.88l4.68,12.83,4.7-12.83Z"/><path class="cls-2" d="M71.54,17.08v4.85h4.4V38h4.84V21.93h4.45V17.08ZM84.7,21.4H80.42l-.17.14V37.47H76.47V21.54s0,0,0-.06-.08-.08-.11-.08H72.07V17.62H84.7Z"/><path class="cls-2" d="M95.23,21.4H92.51a.14.14,0,0,0-.16.16v12c0,.11,0,.17.16.17h2.58a5.94,5.94,0,0,0,6.19-6.16A5.8,5.8,0,0,0,95.23,21.4Zm-.14,11.76H92.88V21.93h2.35a5.29,5.29,0,0,1,5.52,5.6A5.42,5.42,0,0,1,95.09,33.16Zm.14-11.76H92.51a.14.14,0,0,0-.16.16v12c0,.11,0,.17.16.17h2.58a5.94,5.94,0,0,0,6.19-6.16A5.8,5.8,0,0,0,95.23,21.4Zm-.14,11.76H92.88V21.93h2.35a5.29,5.29,0,0,1,5.52,5.6A5.42,5.42,0,0,1,95.09,33.16Zm0-16.08H88V38h7.06a10.46,10.46,0,1,0,0-20.92Zm0,20.39H88.57V17.62h6.52a9.93,9.93,0,1,1,0,19.85Zm.14-16.07H92.51a.14.14,0,0,0-.16.16v12c0,.11,0,.17.16.17h2.58a5.94,5.94,0,0,0,6.19-6.16A5.8,5.8,0,0,0,95.23,21.4Zm-.14,11.76H92.88V21.93h2.35a5.29,5.29,0,0,1,5.52,5.6A5.42,5.42,0,0,1,95.09,33.16Zm.14-11.76H92.51a.14.14,0,0,0-.16.16v12c0,.11,0,.17.16.17h2.58a5.94,5.94,0,0,0,6.19-6.16A5.8,5.8,0,0,0,95.23,21.4Zm-.14,11.76H92.88V21.93h2.35a5.29,5.29,0,0,1,5.52,5.6A5.42,5.42,0,0,1,95.09,33.16Zm.14-11.76H92.51a.14.14,0,0,0-.16.16v12c0,.11,0,.17.16.17h2.58a5.94,5.94,0,0,0,6.19-6.16A5.8,5.8,0,0,0,95.23,21.4Zm-.14,11.76H92.88V21.93h2.35a5.29,5.29,0,0,1,5.52,5.6A5.42,5.42,0,0,1,95.09,33.16Z"/><path class="cls-2" d="M123.9,17.08l-4.7,12.83-4.68-12.83h-5.88V38h5V27.39L117.38,38H121c3.58-9.66,3.69-9.88,4-10.81V38h4.82V17.08Zm5.43,20.39h-3.75v-13s-.44.87-5,13h-2.89l-4.67-13.16V37.47h-3.9V17.62h5l5,13.86,5.07-13.86h5.06Z"/><circle class="cls-3" cx="31.76" cy="31.48" r="22.68"/><path class="cls-2" d="M31.76,55.07A23.59,23.59,0,1,1,55.35,31.48,23.62,23.62,0,0,1,31.76,55.07Zm0-45.35A21.76,21.76,0,1,0,53.52,31.48,21.78,21.78,0,0,0,31.76,9.72Z"/><circle class="cls-4" cx="31.76" cy="31.48" r="17.1"/><circle class="cls-5" cx="31.76" cy="31.48" r="10.15"/><circle class="cls-6" cx="29.39" cy="28.05" r="3.66"/><path class="cls-5" d="M63.44,31.54l-.23,4.4A6.82,6.82,0,0,1,56,42.39h-.2a.92.92,0,0,1-.87-1l.77-14.64a.92.92,0,0,1,.93-.87,29.73,29.73,0,0,0-5-12.61,23.82,23.82,0,0,0-12.54-9A26.14,26.14,0,0,0,22.26,5a23.74,23.74,0,0,0-11.5,10.08A30.38,30.38,0,0,0,7,25.93a.91.91,0,0,1,.73.85l.77,14.64a.92.92,0,0,1-.87,1h-.2A6.82,6.82,0,0,1,.24,35.94L0,31.54A5.27,5.27,0,0,1,3.7,26.24a32.9,32.9,0,0,1,5.52-14.7A26.79,26.79,0,0,1,23.41,1.19,29.18,29.18,0,0,1,42,1.88,27.59,27.59,0,0,1,55.48,13.27a33.43,33.43,0,0,1,4.49,13A5.27,5.27,0,0,1,63.44,31.54Z"/></g></g></svg>