<svg xmlns="http://www.w3.org/2000/svg" viewBox="0 0 61.33 58.33"><defs><style>.cls-1{fill:#58a4a1;}.cls-2{fill:#ccc;}.cls-3{fill:#fff;}</style></defs><title>menu_icon</title><g id="Layer_2" data-name="Layer 2"><g id="Layer_1-2" data-name="Layer 1"><rect class="cls-1" x="0.5" y="0.5" width="60.33" height="57.33" rx="13.5" ry="13.5"/><path class="cls-2" d="M47.33,1a13,13,0,0,1,13,13V44.33a13,13,0,0,1-13,13H14a13,13,0,0,1-13-13V14A13,13,0,0,1,14,1H47.33m0-1H14A14,14,0,0,0,0,14V44.33a14,14,0,0,0,14,14H47.33a14,14,0,0,0,14-14V14a14,14,0,0,0-14-14Z"/><path class="cls-3" d="M47.8,13.22H13.54a2,2,0,0,0-2,1.94v2.51a2,2,0,0,0,2,1.94H47.8a2,2,0,0,0,2-1.94V15.15A2,2,0,0,0,47.8,13.22Z"/><path class="cls-3" d="M47.8,26H13.54a2,2,0,0,0-2,1.94v2.51a2,2,0,0,0,2,1.94H47.8a2,2,0,0,0,2-1.94V27.91A2,2,0,0,0,47.8,26Z"/><path class="cls-3" d="M47.8,38.74H13.54a2,2,0,0,0-2,1.94v2.51a2,2,0,0,0,2,1.94H47.8a2,2,0,0,0,2-1.94V40.67A2,2,0,0,0,47.8,38.74Z"/></g></g></svg>