<svg xmlns="http://www.w3.org/2000/svg" viewBox="0 0 26 25.22"><defs><style>.cls-1{fill:#ff931e;}</style></defs><title>search_icon</title><g id="Layer_2" data-name="Layer 2"><g id="Layer_1-2" data-name="Layer 1"><g id="Search"><path class="cls-1" d="M.29,22.54a1.14,1.14,0,0,1,.08-1.6L6.91,15a1.14,1.14,0,0,1,1.6.08l2.08,2.3a1.14,1.14,0,0,1-.08,1.6L4,24.92a1.14,1.14,0,0,1-1.6-.08Z"/><path class="cls-1" d="M16.84,0A9.15,9.15,0,1,1,8.2,6.16,9.14,9.14,0,0,1,16.84,0m0,2.48A6.68,6.68,0,1,0,19,2.85h0a6.65,6.65,0,0,0-2.18-.37Z"/></g></g></g></svg>