<?xml version="1.0" encoding="utf-8"?>
<!-- Generator: Adobe Illustrator 21.0.0, SVG Export Plug-In . SVG Version: 6.00 Build 0)  -->
<svg version="1.1" id="Layer_1" xmlns:sketch="http://www.bohemiancoding.com/sketch/ns"
	 xmlns="http://www.w3.org/2000/svg" xmlns:xlink="http://www.w3.org/1999/xlink" x="0px" y="0px" viewBox="0 0 154 44.3"
	 style="enable-background:new 0 0 154 44.3;" xml:space="preserve">
<style type="text/css">
	.st0{fill:url(#SVGID_1_);}
	.st1{fill:none;stroke:#FFFFFF;stroke-miterlimit:10;}
	.st2{fill:url(#SVGID_2_);}
	.st3{fill:#C5C7C9;}
	.st4{fill:url(#SVGID_3_);}
	.st5{fill:#D88119;}
	.st6{fill:url(#SVGID_4_);}
	.st7{fill:#15272A;}
	.st8{fill:#FFFFFF;}
</style>
<g id="New_Symbol">
	<g>
		<linearGradient id="SVGID_1_" gradientUnits="userSpaceOnUse" x1="76.9794" y1="47.4831" x2="76.9794" y2="-12.0557">
			<stop  offset="0" style="stop-color:#FF1D25"/>
			<stop  offset="0.1301" style="stop-color:#FF392F"/>
			<stop  offset="0.3061" style="stop-color:#FF593A"/>
			<stop  offset="0.4546" style="stop-color:#FF6C41"/>
			<stop  offset="0.5568" style="stop-color:#FF7344"/>
			<stop  offset="0.6615" style="stop-color:#FF6F43"/>
			<stop  offset="0.7541" style="stop-color:#FF653F"/>
			<stop  offset="0.8422" style="stop-color:#FF5338"/>
			<stop  offset="0.9269" style="stop-color:#FF392F"/>
			<stop  offset="1" style="stop-color:#FF1D25"/>
		</linearGradient>
		<path class="st0" d="M20,1.9h113.9c10.6,0,19.3,8.7,19.3,19.3V23c0,10.6-8.7,19.3-19.3,19.3H20C9.4,42.4,0.7,33.7,0.7,23v-1.8
			C0.7,10.6,9.4,1.9,20,1.9z"/>
		<path class="st1" d="M21,2.8h112c10.6,0,19.3,8.7,19.3,19.3v0c0,10.6-8.7,19.3-19.3,19.3H21c-10.6,0-19.3-8.7-19.3-19.3v0
			C1.6,11.5,10.3,2.8,21,2.8z"/>
		<g>
			<g>
				<g>
					<g>
						
							<linearGradient id="SVGID_2_" gradientUnits="userSpaceOnUse" x1="-7648.375" y1="-7777.2446" x2="-7648.375" y2="-7762.9619" gradientTransform="matrix(0 1.875 -1.875 0 -14438.5469 14362.833)">
							<stop  offset="0" style="stop-color:#FFFFFF"/>
							<stop  offset="1" style="stop-color:#DDDFE0"/>
						</linearGradient>
						<path class="st2" d="M132.2,37.6c-8.5,0-15.4-6.9-15.4-15.4s6.9-15.4,15.4-15.4s15.4,6.9,15.4,15.4S140.7,37.6,132.2,37.6z"/>
						<g>
							<path class="st3" d="M132.2,6.9c8.4,0,15.2,6.8,15.2,15.2s-6.8,15.2-15.2,15.2S117,30.5,117,22.1S123.8,6.9,132.2,6.9
								 M132.2,6.4c-8.7,0-15.7,7-15.7,15.7c0,8.7,7,15.7,15.7,15.7s15.7-7,15.7-15.7C147.9,13.5,140.9,6.4,132.2,6.4L132.2,6.4z"/>
						</g>
					</g>
					<g>
						
							<radialGradient id="SVGID_3_" cx="-7648.5776" cy="-7775.4697" r="8.608" gradientTransform="matrix(0 1.875 -1.875 0 -14438.5469 14362.832)" gradientUnits="userSpaceOnUse">
							<stop  offset="0" style="stop-color:#FFF350"/>
							<stop  offset="1" style="stop-color:#FAA919"/>
						</radialGradient>
						<path class="st4" d="M132.2,32.9c-6,0-10.8-4.8-10.8-10.8c0-6,4.8-10.8,10.8-10.8c6,0,10.8,4.8,10.8,10.8
							C143,28.1,138.2,32.9,132.2,32.9z"/>
						<g>
							<path class="st5" d="M132.2,11.8c5.7,0,10.3,4.6,10.3,10.3c0,5.7-4.6,10.3-10.3,10.3c-5.7,0-10.3-4.6-10.3-10.3
								C121.9,16.4,126.5,11.8,132.2,11.8 M132.2,10.8c-6.2,0-11.3,5.1-11.3,11.3c0,6.2,5.1,11.3,11.3,11.3
								c6.2,0,11.3-5.1,11.3-11.3C143.5,15.9,138.4,10.8,132.2,10.8L132.2,10.8z"/>
						</g>
					</g>
				</g>
				<g>
					
						<linearGradient id="SVGID_4_" gradientUnits="userSpaceOnUse" x1="-7648.0586" y1="-7768.7422" x2="-7648.0586" y2="-7774.3574" gradientTransform="matrix(0 1.875 -1.875 0 -14438.5469 14362.833)">
						<stop  offset="0" style="stop-color:#706F71"/>
						<stop  offset="1" style="stop-color:#050607"/>
					</linearGradient>
					<polygon class="st6" points="126.9,22.2 130.8,22.2 130.8,16.9 134.7,16.9 134.7,22.2 138.5,22.2 132.7,28.5 					"/>
					<path class="st7" d="M134.4,17.2V22v0.5h0.5h3l-5.2,5.7l-5.2-5.7h3h0.5V22v-4.8H134.4 M134.9,16.7h-4.4V22h-4.1l6.3,6.9L139,22
						h-4.1V16.7L134.9,16.7z"/>
				</g>
			</g>
			<g>
				<path class="st8" d="M13.6,17.4v9.2h-2.1v-9.2h-3v-1.7h8.1v1.7H13.6z"/>
				<path class="st8" d="M25.7,21.7c0,0.1,0,0.3,0,0.5c0,0.2,0,0.4,0,0.6h-5.6c0,0.4,0.1,0.7,0.2,1c0.1,0.3,0.3,0.5,0.5,0.7
					c0.2,0.2,0.5,0.3,0.8,0.4c0.3,0.1,0.6,0.2,1,0.2c0.4,0,0.9,0,1.3-0.1c0.5-0.1,1-0.2,1.5-0.3v1.6c-0.2,0.1-0.5,0.1-0.7,0.2
					s-0.5,0.1-0.8,0.1c-0.3,0-0.5,0.1-0.8,0.1c-0.3,0-0.5,0-0.8,0c-0.6,0-1.2-0.1-1.7-0.3c-0.5-0.2-0.9-0.5-1.3-0.8
					s-0.6-0.8-0.8-1.3c-0.2-0.5-0.3-1.1-0.3-1.8c0-0.7,0.1-1.3,0.3-1.9c0.2-0.6,0.5-1,0.8-1.4c0.3-0.4,0.8-0.7,1.3-0.9
					c0.5-0.2,1-0.3,1.6-0.3c0.6,0,1.1,0.1,1.6,0.3c0.5,0.2,0.8,0.4,1.2,0.8c0.3,0.3,0.5,0.7,0.7,1.2C25.7,20.6,25.7,21.2,25.7,21.7z
					 M23.7,21.4c0-0.3,0-0.6-0.1-0.9c-0.1-0.2-0.2-0.5-0.4-0.6c-0.2-0.2-0.3-0.3-0.5-0.4c-0.2-0.1-0.4-0.1-0.7-0.1
					c-0.5,0-0.9,0.2-1.3,0.5c-0.3,0.3-0.5,0.8-0.6,1.4H23.7z"/>
				<path class="st8" d="M30.5,16.4h-2.4v-1.6h4.5V25H35v1.6h-7.2V25h2.7V16.4z"/>
				<path class="st8" d="M44.5,21.7c0,0.1,0,0.3,0,0.5c0,0.2,0,0.4,0,0.6h-5.6c0,0.4,0.1,0.7,0.2,1c0.1,0.3,0.3,0.5,0.5,0.7
					c0.2,0.2,0.5,0.3,0.8,0.4c0.3,0.1,0.6,0.2,1,0.2c0.4,0,0.9,0,1.3-0.1c0.5-0.1,1-0.2,1.5-0.3v1.6c-0.2,0.1-0.5,0.1-0.7,0.2
					s-0.5,0.1-0.8,0.1c-0.3,0-0.5,0.1-0.8,0.1c-0.3,0-0.5,0-0.8,0c-0.6,0-1.2-0.1-1.7-0.3c-0.5-0.2-0.9-0.5-1.3-0.8
					s-0.6-0.8-0.8-1.3c-0.2-0.5-0.3-1.1-0.3-1.8c0-0.7,0.1-1.3,0.3-1.9c0.2-0.6,0.5-1,0.8-1.4c0.3-0.4,0.8-0.7,1.3-0.9
					c0.5-0.2,1-0.3,1.6-0.3c0.6,0,1.1,0.1,1.6,0.3c0.5,0.2,0.8,0.4,1.2,0.8c0.3,0.3,0.5,0.7,0.7,1.2C44.4,20.6,44.5,21.2,44.5,21.7z
					 M42.4,21.4c0-0.3,0-0.6-0.1-0.9c-0.1-0.2-0.2-0.5-0.4-0.6c-0.2-0.2-0.3-0.3-0.5-0.4c-0.2-0.1-0.4-0.1-0.7-0.1
					c-0.5,0-0.9,0.2-1.3,0.5c-0.3,0.3-0.5,0.8-0.6,1.4H42.4z"/>
				<path class="st8" d="M53.4,26.3c-0.4,0.2-0.8,0.3-1.2,0.4c-0.4,0.1-0.9,0.1-1.3,0.1c-0.7,0-1.3-0.1-1.8-0.3s-1-0.5-1.4-0.8
					c-0.4-0.4-0.7-0.8-0.9-1.3c-0.2-0.5-0.3-1.2-0.3-1.9c0-0.7,0.1-1.3,0.3-1.8c0.2-0.6,0.5-1,0.9-1.4c0.4-0.4,0.9-0.7,1.4-0.9
					c0.5-0.2,1.2-0.3,1.8-0.3c0.6,0,1,0,1.4,0.1s0.7,0.1,1,0.2v2c-0.3-0.2-0.7-0.3-1.1-0.4s-0.8-0.1-1.1-0.1c-0.4,0-0.7,0.1-1,0.2
					c-0.3,0.1-0.6,0.3-0.8,0.5c-0.2,0.2-0.4,0.5-0.5,0.8s-0.2,0.7-0.2,1.1c0,0.4,0.1,0.8,0.2,1.1c0.1,0.3,0.3,0.6,0.5,0.8
					c0.2,0.2,0.5,0.4,0.8,0.5c0.3,0.1,0.6,0.2,1,0.2c0.2,0,0.4,0,0.6,0c0.2,0,0.4-0.1,0.6-0.1c0.2,0,0.4-0.1,0.6-0.2
					c0.2-0.1,0.4-0.1,0.5-0.2V26.3z"/>
				<path class="st8" d="M61,26.6v-5.5c0-0.9-0.3-1.4-1-1.4c-0.3,0-0.7,0.1-1,0.4c-0.3,0.3-0.6,0.7-1,1.1v5.4h-2V14.8h2v2.9
					l-0.1,1.5c0.2-0.2,0.3-0.4,0.5-0.6c0.2-0.2,0.4-0.3,0.6-0.4s0.4-0.2,0.7-0.3s0.5-0.1,0.8-0.1c0.4,0,0.8,0.1,1.1,0.2
					s0.6,0.3,0.8,0.6c0.2,0.3,0.4,0.6,0.5,0.9c0.1,0.4,0.2,0.8,0.2,1.2v5.7H61z"/>
				<path class="st8" d="M70.6,26.6l-0.1-1.1c-0.2,0.2-0.4,0.4-0.6,0.5c-0.2,0.2-0.4,0.3-0.6,0.4c-0.2,0.1-0.5,0.2-0.8,0.3
					c-0.3,0.1-0.6,0.1-0.9,0.1c-0.4,0-0.8-0.1-1.1-0.2c-0.3-0.1-0.6-0.3-0.8-0.5s-0.4-0.5-0.5-0.8c-0.1-0.3-0.2-0.7-0.2-1.1
					c0-0.4,0.1-0.8,0.3-1.1s0.4-0.6,0.8-0.9c0.3-0.2,0.8-0.4,1.3-0.6c0.5-0.1,1.1-0.2,1.8-0.2h1.1v-0.5c0-0.2,0-0.4-0.1-0.6
					c-0.1-0.2-0.2-0.3-0.3-0.4s-0.3-0.2-0.5-0.3c-0.2-0.1-0.5-0.1-0.8-0.1c-0.5,0-1,0.1-1.5,0.2c-0.5,0.1-1,0.3-1.4,0.5v-1.6
					c0.4-0.2,0.9-0.3,1.4-0.4s1.1-0.2,1.7-0.2c0.6,0,1.2,0.1,1.6,0.2c0.4,0.1,0.8,0.3,1.1,0.5c0.3,0.2,0.5,0.5,0.6,0.9
					c0.1,0.4,0.2,0.8,0.2,1.3v5.8H70.6z M70.3,22.8h-1.2c-0.3,0-0.6,0-0.9,0.1c-0.2,0.1-0.4,0.2-0.6,0.3c-0.1,0.1-0.3,0.3-0.3,0.4
					c-0.1,0.2-0.1,0.3-0.1,0.5c0,0.3,0.1,0.6,0.3,0.8s0.5,0.3,0.9,0.3c0.3,0,0.6-0.1,0.9-0.3c0.3-0.2,0.6-0.5,1-0.9V22.8z"/>
				<path class="st8" d="M80.1,21.4c0-0.3,0-0.6,0-0.8c0-0.2-0.1-0.4-0.2-0.5c-0.1-0.1-0.2-0.2-0.3-0.3c-0.1-0.1-0.3-0.1-0.5-0.1
					c-0.3,0-0.6,0.1-0.9,0.4c-0.3,0.2-0.7,0.7-1.1,1.2v5.4H75v-8.5h1.8l0.1,1.2c0.1-0.2,0.3-0.4,0.5-0.6c0.2-0.2,0.4-0.3,0.6-0.4
					c0.2-0.1,0.5-0.2,0.7-0.3c0.3-0.1,0.5-0.1,0.9-0.1c0.4,0,0.8,0.1,1.1,0.2c0.3,0.1,0.6,0.4,0.8,0.7c0.2,0.3,0.4,0.7,0.5,1.1
					c0.1,0.4,0.2,0.9,0.1,1.5H80.1z"/>
				<path class="st8" d="M90.4,19.6c0.2,0.2,0.3,0.4,0.3,0.6s0.1,0.4,0.1,0.7c0,0.5-0.1,0.9-0.2,1.3c-0.2,0.4-0.4,0.7-0.7,0.9
					c-0.3,0.2-0.7,0.4-1.1,0.6c-0.4,0.1-0.9,0.2-1.4,0.2c-0.3,0-0.6,0-0.8-0.1c-0.3-0.1-0.4-0.1-0.6-0.2c-0.1,0.1-0.2,0.2-0.2,0.3
					c-0.1,0.1-0.1,0.2-0.1,0.4c0,0.1,0,0.2,0.1,0.3s0.1,0.2,0.2,0.2c0.1,0.1,0.2,0.1,0.3,0.2c0.1,0,0.3,0.1,0.4,0.1l2,0.1
					c0.5,0,0.9,0.1,1.2,0.2c0.4,0.1,0.7,0.2,0.9,0.4c0.3,0.2,0.5,0.4,0.6,0.7c0.1,0.3,0.2,0.6,0.2,0.9c0,0.4-0.1,0.8-0.3,1.1
					c-0.2,0.4-0.4,0.7-0.8,0.9c-0.4,0.3-0.8,0.5-1.3,0.6c-0.5,0.2-1.2,0.2-1.9,0.2c-0.7,0-1.3-0.1-1.8-0.2c-0.5-0.1-0.9-0.3-1.2-0.5
					s-0.5-0.4-0.7-0.7s-0.2-0.6-0.2-0.9c0-0.2,0-0.4,0.1-0.5c0-0.2,0.1-0.3,0.2-0.5c0.1-0.2,0.2-0.3,0.4-0.4s0.3-0.3,0.5-0.4
					c-0.3-0.2-0.5-0.4-0.6-0.6c-0.1-0.2-0.2-0.5-0.2-0.8c0-0.2,0-0.4,0.1-0.5s0.1-0.3,0.2-0.5c0.1-0.2,0.2-0.3,0.3-0.4
					s0.2-0.3,0.3-0.4c-0.2-0.2-0.4-0.5-0.5-0.7s-0.2-0.7-0.2-1.1c0-0.5,0.1-0.9,0.3-1.3c0.2-0.4,0.4-0.7,0.7-0.9
					c0.3-0.3,0.7-0.4,1.1-0.6C86.5,18,87,18,87.5,18c0.3,0,0.5,0,0.7,0c0.2,0,0.4,0.1,0.6,0.1h2.9v1.5H90.4z M85.6,27.7
					c0,0.3,0.2,0.6,0.5,0.7c0.3,0.2,0.8,0.2,1.4,0.2c0.4,0,0.7,0,1-0.1s0.5-0.2,0.6-0.3c0.2-0.1,0.3-0.3,0.4-0.4
					c0.1-0.2,0.1-0.3,0.1-0.5c0-0.1,0-0.3-0.1-0.4s-0.2-0.2-0.3-0.3c-0.1-0.1-0.3-0.1-0.4-0.2c-0.2,0-0.4-0.1-0.6-0.1l-1.8,0
					c-0.2,0.1-0.3,0.2-0.4,0.3c-0.1,0.1-0.2,0.2-0.2,0.3c-0.1,0.1-0.1,0.2-0.1,0.3C85.6,27.5,85.6,27.6,85.6,27.7z M86,20.9
					c0,0.4,0.1,0.8,0.4,1.1c0.3,0.3,0.6,0.4,1.1,0.4c0.3,0,0.5,0,0.7-0.1c0.2-0.1,0.3-0.2,0.5-0.3s0.2-0.3,0.3-0.5
					c0.1-0.2,0.1-0.4,0.1-0.6c0-0.5-0.1-0.8-0.4-1.1c-0.3-0.3-0.6-0.4-1.1-0.4c-0.3,0-0.5,0-0.7,0.1c-0.2,0.1-0.3,0.2-0.5,0.3
					s-0.2,0.3-0.3,0.5C86,20.5,86,20.7,86,20.9z"/>
				<path class="st8" d="M100.8,21.7c0,0.1,0,0.3,0,0.5c0,0.2,0,0.4,0,0.6h-5.6c0,0.4,0.1,0.7,0.2,1c0.1,0.3,0.3,0.5,0.5,0.7
					c0.2,0.2,0.5,0.3,0.8,0.4c0.3,0.1,0.6,0.2,1,0.2c0.4,0,0.9,0,1.3-0.1c0.5-0.1,1-0.2,1.5-0.3v1.6c-0.2,0.1-0.5,0.1-0.7,0.2
					c-0.3,0-0.5,0.1-0.8,0.1c-0.3,0-0.5,0.1-0.8,0.1c-0.3,0-0.5,0-0.8,0c-0.6,0-1.2-0.1-1.7-0.3c-0.5-0.2-0.9-0.5-1.3-0.8
					s-0.6-0.8-0.8-1.3c-0.2-0.5-0.3-1.1-0.3-1.8c0-0.7,0.1-1.3,0.3-1.9c0.2-0.6,0.5-1,0.8-1.4c0.3-0.4,0.8-0.7,1.3-0.9
					c0.5-0.2,1-0.3,1.6-0.3c0.6,0,1.1,0.1,1.6,0.3c0.5,0.2,0.8,0.4,1.2,0.8c0.3,0.3,0.5,0.7,0.7,1.2
					C100.7,20.6,100.8,21.2,100.8,21.7z M98.8,21.4c0-0.3,0-0.6-0.1-0.9s-0.2-0.5-0.4-0.6c-0.2-0.2-0.3-0.3-0.5-0.4
					c-0.2-0.1-0.4-0.1-0.7-0.1c-0.5,0-0.9,0.2-1.3,0.5c-0.3,0.3-0.5,0.8-0.6,1.4H98.8z"/>
				<path class="st8" d="M108.3,21.4c0-0.3,0-0.6,0-0.8c0-0.2-0.1-0.4-0.2-0.5c-0.1-0.1-0.2-0.2-0.3-0.3c-0.1-0.1-0.3-0.1-0.5-0.1
					c-0.3,0-0.6,0.1-0.9,0.4c-0.3,0.2-0.7,0.7-1.1,1.2v5.4h-2.1v-8.5h1.8l0.1,1.2c0.1-0.2,0.3-0.4,0.5-0.6c0.2-0.2,0.4-0.3,0.6-0.4
					s0.5-0.2,0.7-0.3c0.3-0.1,0.5-0.1,0.9-0.1c0.4,0,0.8,0.1,1.1,0.2c0.3,0.1,0.6,0.4,0.8,0.7c0.2,0.3,0.4,0.7,0.5,1.1
					c0.1,0.4,0.2,0.9,0.1,1.5H108.3z"/>
			</g>
		</g>
	</g>
</g>
</svg>
